<svg xmlns="http://www.w3.org/2000/svg" viewBox="0 0 144 88">
  <defs>
    <linearGradient id="sky" x1="0" y1="0" x2="1" y2="1">
      <stop offset="0" stop-color="#eef8ff"/>
      <stop offset=".58" stop-color="#d8edf8"/>
      <stop offset="1" stop-color="#eef2f7"/>
    </linearGradient>
    <clipPath id="earthClip"><circle cx="72" cy="47" r="24"/></clipPath>
  </defs>
  <rect width="144" height="88" fill="url(#sky)"/>
  <g fill="#3f83a8" opacity=".18">
    <circle cx="19" cy="15" r=".55"/><circle cx="31" cy="63" r=".45"/><circle cx="119" cy="22" r=".55"/><circle cx="111" cy="70" r=".5"/><circle cx="130" cy="47" r=".4"/>
  </g>
  <ellipse cx="72" cy="47" rx="42" ry="14" fill="none" stroke="#3f83a8" stroke-opacity=".08"/>
  <circle cx="96" cy="34" r="6" fill="#fbfdff" stroke="#a8bac9" stroke-opacity=".55"/>
  <circle cx="72" cy="47" r="30" fill="none" stroke="#70b9d7" stroke-opacity=".11" stroke-width="5"/>
  <circle cx="72" cy="47" r="24" fill="none" stroke="#236f96" stroke-opacity=".42" stroke-width="1.2"/>
  <g clip-path="url(#earthClip)">
    <circle cx="72" cy="47" r="24" fill="#cfe5ef" opacity=".28"/>
    <g fill="none" stroke="#236f96" stroke-opacity=".16" stroke-width=".8">
      <ellipse cx="72" cy="47" rx="24" ry="7.5"/>
      <ellipse cx="72" cy="47" rx="10" ry="24"/>
      <path d="M49 38c14 5 31 5 46 0M49 56c14-5 31-5 46 0"/>
    </g>
    <g fill="#236f96">
      <circle cx="56" cy="32" r=".9"/><circle cx="59" cy="35" r="1"/><circle cx="62" cy="38" r=".9"/><circle cx="56" cy="40" r=".7"/><circle cx="64" cy="42" r=".8"/>
      <circle cx="69" cy="30" r=".7"/><circle cx="73" cy="29" r=".9"/><circle cx="78" cy="31" r=".8"/><circle cx="83" cy="34" r=".9"/><circle cx="87" cy="37" r=".8"/>
      <circle cx="75" cy="39" r=".9"/><circle cx="80" cy="42" r="1.1"/><circle cx="86" cy="45" r=".8"/><circle cx="92" cy="47" r=".7"/>
      <circle cx="66" cy="50" r=".8"/><circle cx="62" cy="54" r=".7"/><circle cx="68" cy="58" r=".8"/><circle cx="75" cy="61" r=".9"/><circle cx="82" cy="58" r=".7"/>
      <circle cx="86" cy="55" r=".75"/><circle cx="90" cy="52" r=".65"/><circle cx="58" cy="48" r=".6"/><circle cx="53" cy="45" r=".55"/>
    </g>
    <g fill="#5daed2" opacity=".48">
      <circle cx="51" cy="53" r=".45"/><circle cx="60" cy="61" r=".38"/><circle cx="70" cy="42" r=".42"/><circle cx="94" cy="40" r=".4"/><circle cx="79" cy="52" r=".36"/>
    </g>
  </g>
</svg>
