<svg xmlns="http://www.w3.org/2000/svg" width="512" height="512" viewBox="0 0 512 512" role="img" aria-label="Vera — free window"><title>Vera — free window</title><defs>
<linearGradient id="body" x1="0" y1="0" x2=".8" y2="1"><stop stop-color="#69B5A5"/><stop offset=".42" stop-color="#347F71"/><stop offset="1" stop-color="#174C45"/></linearGradient>
<linearGradient id="window" x1="0" y1="0" x2=".8" y2="1"><stop stop-color="#F4FCF6"/><stop offset=".45" stop-color="#C7F0E5"/><stop offset="1" stop-color="#A7E7DE"/></linearGradient>
<linearGradient id="side" x1="0" y1="0" x2="1" y2="1"><stop stop-color="#A7E7DE"/><stop offset="1" stop-color="#58B8A7"/></linearGradient>
<linearGradient id="lower" x1="0" y1="0" x2="1" y2=".4"><stop stop-color="#71C9B6"/><stop offset="1" stop-color="#B6E9DC"/></linearGradient>
<radialGradient id="light" cx=".16" cy=".04" r=".9"><stop stop-color="#F8FFF3" stop-opacity=".20"/><stop offset="1" stop-color="#F8FFF3" stop-opacity="0"/></radialGradient>
<clipPath id="tile"><rect x="8" y="8" width="496" height="496" rx="112"/></clipPath>
<linearGradient id="bevel" x1="0" y1="0" x2=".8" y2="1"><stop stop-color="#E6FFF2" stop-opacity=".75"/><stop offset=".45" stop-color="#A7E7DE" stop-opacity=".08"/><stop offset="1" stop-color="#062E28" stop-opacity=".65"/></linearGradient>
<linearGradient id="glass" x1="0" y1="0" x2=".7" y2="1"><stop stop-color="#F1FFF6" stop-opacity=".92"/><stop offset=".3" stop-color="#C8F6E9" stop-opacity=".68"/><stop offset=".7" stop-color="#73CEBB" stop-opacity=".5"/><stop offset="1" stop-color="#B8F5E5" stop-opacity=".82"/></linearGradient>
<linearGradient id="reflection" x1="0" y1="0" x2="0" y2="1"><stop stop-color="#FFFFFF" stop-opacity=".5"/><stop offset="1" stop-color="#FFFFFF" stop-opacity="0"/></linearGradient>
<radialGradient id="softReflection" cx=".23" cy=".04" r=".94"><stop stop-color="#F6FFF9" stop-opacity=".6"/><stop offset=".55" stop-color="#E8FFF5" stop-opacity=".1"/><stop offset="1" stop-color="#D0FFF0" stop-opacity="0"/></radialGradient>
</defs><rect x="8" y="8" width="496" height="496" rx="112" fill="url(#body)"/><rect x="11" y="11" width="490" height="490" rx="109" fill="none" stroke="url(#bevel)" stroke-width="5"/><g clip-path="url(#tile)"><rect x="71.0" y="77.0" width="280" height="246.0" rx="45.0" fill="#092D25" opacity=".018"/><rect x="71.5" y="77.3" width="279" height="245.2" rx="44.5" fill="#092D25" opacity=".018"/><rect x="72.0" y="77.6" width="278" height="244.4" rx="44.0" fill="#092D25" opacity=".018"/><rect x="72.5" y="77.9" width="277" height="243.6" rx="43.5" fill="#092D25" opacity=".018"/><rect x="73.0" y="78.2" width="276" height="242.8" rx="43.0" fill="#092D25" opacity=".018"/><rect x="73.5" y="78.5" width="275" height="242.0" rx="42.5" fill="#092D25" opacity=".018"/><rect x="74.0" y="78.8" width="274" height="241.2" rx="42.0" fill="#092D25" opacity=".018"/><rect x="74.5" y="79.1" width="273" height="240.4" rx="41.5" fill="#092D25" opacity=".018"/><rect x="75.0" y="79.4" width="272" height="239.6" rx="41.0" fill="#092D25" opacity=".018"/><rect x="75.5" y="79.7" width="271" height="238.8" rx="40.5" fill="#092D25" opacity=".018"/><defs><linearGradient id="round0_0" x1=".1" y1="0" x2=".7" y2="1"><stop stop-color="#79c0aa"/><stop offset="1" stop-color="#24624f"/></linearGradient></defs><rect x="73.0" y="73.0" width="276.0" height="247.0" rx="43.0" fill="url(#round0_0)"/><defs><linearGradient id="round0_1" x1=".1" y1="0" x2=".7" y2="1"><stop stop-color="#7fc3ae"/><stop offset="1" stop-color="#296855"/></linearGradient></defs><rect x="73.01353473382986" y="73.01353473382986" width="275.9729305323403" height="246.97293053234029" rx="42.98646526617014" fill="url(#round0_1)"/><defs><linearGradient id="round0_2" x1=".1" y1="0" x2=".7" y2="1"><stop stop-color="#85c7b2"/><stop offset="1" stop-color="#2e6f5b"/></linearGradient></defs><rect x="73.05409313806446" y="73.05409313806446" width="275.8918137238711" height="246.89181372387108" rx="42.94590686193554" fill="url(#round0_2)"/><defs><linearGradient id="round0_3" x1=".1" y1="0" x2=".7" y2="1"><stop stop-color="#8bcab6"/><stop offset="1" stop-color="#337561"/></linearGradient></defs><rect x="73.12153797590234" y="73.12153797590234" width="275.75692404819534" height="246.75692404819532" rx="42.878462024097665" fill="url(#round0_3)"/><defs><linearGradient id="round0_4" x1=".1" y1="0" x2=".7" y2="1"><stop stop-color="#91ceba"/><stop offset="1" stop-color="#387b67"/></linearGradient></defs><rect x="73.21564103536141" y="73.21564103536141" width="275.56871792927717" height="246.56871792927717" rx="42.78435896463859" fill="url(#round0_4)"/><defs><linearGradient id="round0_5" x1=".1" y1="0" x2=".7" y2="1"><stop stop-color="#97d1be"/><stop offset="1" stop-color="#3d826c"/></linearGradient></defs><rect x="73.33608390147609" y="73.33608390147609" width="275.3278321970478" height="246.32783219704783" rx="42.66391609852391" fill="url(#round0_5)"/><defs><linearGradient id="round0_6" x1=".1" y1="0" x2=".7" y2="1"><stop stop-color="#9cd5c2"/><stop offset="1" stop-color="#428872"/></linearGradient></defs><rect x="73.48245903371273" y="73.48245903371273" width="275.03508193257454" height="246.03508193257454" rx="42.51754096628727" fill="url(#round0_6)"/><defs><linearGradient id="round0_7" x1=".1" y1="0" x2=".7" y2="1"><stop stop-color="#a2d8c5"/><stop offset="1" stop-color="#478e77"/></linearGradient></defs><rect x="73.6542711449578" y="73.6542711449578" width="274.69145771008436" height="245.6914577100844" rx="42.34572885504219" fill="url(#round0_7)"/><defs><linearGradient id="round0_8" x1=".1" y1="0" x2=".7" y2="1"><stop stop-color="#a7dbc9"/><stop offset="1" stop-color="#4b937d"/></linearGradient></defs><rect x="73.8509388774127" y="73.8509388774127" width="274.29812224517457" height="245.2981222451746" rx="42.1490611225873" fill="url(#round0_8)"/><defs><linearGradient id="round0_9" x1=".1" y1="0" x2=".7" y2="1"><stop stop-color="#acdecc"/><stop offset="1" stop-color="#509982"/></linearGradient></defs><rect x="74.07179676972449" y="74.07179676972449" width="273.856406460551" height="244.85640646055103" rx="41.92820323027551" fill="url(#round0_9)"/><defs><linearGradient id="round0_10" x1=".1" y1="0" x2=".7" y2="1"><stop stop-color="#b2e1d0"/><stop offset="1" stop-color="#549e87"/></linearGradient></defs><rect x="74.31609750869652" y="74.31609750869652" width="273.36780498260697" height="244.36780498260697" rx="41.68390249130349" fill="url(#round0_10)"/><defs><linearGradient id="round0_11" x1=".1" y1="0" x2=".7" y2="1"><stop stop-color="#b7e4d3"/><stop offset="1" stop-color="#59a48c"/></linearGradient></defs><rect x="74.58301445795965" y="74.58301445795965" width="272.8339710840807" height="243.8339710840807" rx="41.41698554204035" fill="url(#round0_11)"/><defs><linearGradient id="round0_12" x1=".1" y1="0" x2=".7" y2="1"><stop stop-color="#bbe7d6"/><stop offset="1" stop-color="#5da991"/></linearGradient></defs><rect x="74.87164445504817" y="74.87164445504817" width="272.25671108990366" height="243.25671108990366" rx="41.12835554495182" fill="url(#round0_12)"/><defs><linearGradient id="round0_13" x1=".1" y1="0" x2=".7" y2="1"><stop stop-color="#c0e9d9"/><stop offset="1" stop-color="#60ad95"/></linearGradient></defs><rect x="75.18101086741561" y="75.18101086741561" width="271.6379782651688" height="242.63797826516878" rx="40.81898913258439" fill="url(#round0_13)"/><defs><linearGradient id="round0_14" x1=".1" y1="0" x2=".7" y2="1"><stop stop-color="#c4ecdc"/><stop offset="1" stop-color="#64b299"/></linearGradient></defs><rect x="75.51006689705014" y="75.51006689705014" width="270.9798662058997" height="241.97986620589973" rx="40.48993310294987" fill="url(#round0_14)"/><defs><linearGradient id="round0_15" x1=".1" y1="0" x2=".7" y2="1"><stop stop-color="#c8eedf"/><stop offset="1" stop-color="#67b69d"/></linearGradient></defs><rect x="75.85769912250768" y="75.85769912250768" width="270.28460175498464" height="241.28460175498464" rx="40.14230087749232" fill="url(#round0_15)"/><defs><linearGradient id="round0_16" x1=".1" y1="0" x2=".7" y2="1"><stop stop-color="#ccf0e1"/><stop offset="1" stop-color="#6bbaa1"/></linearGradient></defs><rect x="76.2227312663777" y="76.2227312663777" width="269.5545374672446" height="240.5545374672446" rx="39.77726873362229" fill="url(#round0_16)"/><defs><linearGradient id="round0_17" x1=".1" y1="0" x2=".7" y2="1"><stop stop-color="#cff2e4"/><stop offset="1" stop-color="#6ebea4"/></linearGradient></defs><rect x="76.60392817543355" y="76.60392817543355" width="268.79214364913287" height="239.7921436491329" rx="39.39607182456645" fill="url(#round0_17)"/><defs><linearGradient id="round0_18" x1=".1" y1="0" x2=".7" y2="1"><stop stop-color="#d2f4e6"/><stop offset="1" stop-color="#70c1a7"/></linearGradient></defs><rect x="77.0" y="77.0" width="268.0" height="239.0" rx="39.0" fill="url(#round0_18)"/><defs><linearGradient id="round0_19" x1=".1" y1="0" x2=".7" y2="1"><stop stop-color="#d5f6e8"/><stop offset="1" stop-color="#73c4aa"/></linearGradient></defs><rect x="77.4096065583963" y="77.4096065583963" width="267.1807868832074" height="238.1807868832074" rx="38.590393441603695" fill="url(#round0_19)"/><defs><linearGradient id="round0_20" x1=".1" y1="0" x2=".7" y2="1"><stop stop-color="#d8f7e9"/><stop offset="1" stop-color="#75c7ad"/></linearGradient></defs><rect x="77.83136187168674" y="77.83136187168674" width="266.3372762566265" height="237.33727625662652" rx="38.168638128313255" fill="url(#round0_20)"/><defs><linearGradient id="round0_21" x1=".1" y1="0" x2=".7" y2="1"><stop stop-color="#daf8eb"/><stop offset="1" stop-color="#77c9af"/></linearGradient></defs><rect x="78.26383885339465" y="78.26383885339465" width="265.4723222932107" height="236.4723222932107" rx="37.736161146605355" fill="url(#round0_21)"/><defs><linearGradient id="round0_22" x1=".1" y1="0" x2=".7" y2="1"><stop stop-color="#dcf9ec"/><stop offset="1" stop-color="#78cbb1"/></linearGradient></defs><rect x="78.70557413831128" y="78.70557413831128" width="264.58885172337745" height="235.58885172337745" rx="37.29442586168872" fill="url(#round0_22)"/><defs><linearGradient id="round0_23" x1=".1" y1="0" x2=".7" y2="1"><stop stop-color="#ddfaed"/><stop offset="1" stop-color="#7acdb2"/></linearGradient></defs><rect x="79.15507303406048" y="79.15507303406048" width="263.68985393187904" height="234.68985393187904" rx="36.84492696593952" fill="url(#round0_23)"/><defs><linearGradient id="round0_24" x1=".1" y1="0" x2=".7" y2="1"><stop stop-color="#defbee"/><stop offset="1" stop-color="#7bceb3"/></linearGradient></defs><rect x="79.61081457866456" y="79.61081457866456" width="262.7783708426709" height="233.77837084267088" rx="36.38918542133544" fill="url(#round0_24)"/><defs><linearGradient id="round0_25" x1=".1" y1="0" x2=".7" y2="1"><stop stop-color="#dffcef"/><stop offset="1" stop-color="#7bcfb4"/></linearGradient></defs><rect x="80.07125668699815" y="80.07125668699815" width="261.85748662600366" height="232.8574866260037" rx="35.928743313001846" fill="url(#round0_25)"/><defs><linearGradient id="round0_26" x1=".1" y1="0" x2=".7" y2="1"><stop stop-color="#e0fcef"/><stop offset="1" stop-color="#7cd0b5"/></linearGradient></defs><rect x="80.53484136871619" y="80.53484136871619" width="260.9303172625676" height="231.93031726256763" rx="35.465158631283806" fill="url(#round0_26)"/><defs><linearGradient id="round0_27" x1=".1" y1="0" x2=".7" y2="1"><stop stop-color="#e0fcef"/><stop offset="1" stop-color="#7cd0b5"/></linearGradient></defs><rect x="81.0" y="81.0" width="260.0" height="231.0" rx="35.0" fill="url(#round0_27)"/><rect x="81" y="81" width="260" height="228" rx="35" fill="url(#glass)"/><clipPath id="pane0"><rect x="81" y="81" width="260" height="228" rx="35"/></clipPath><path clip-path="url(#pane0)" d="M81 81 H341 V122.03999999999999 Q224.0 217.79999999999998 81 195.0 Z" fill="url(#reflection)"/><rect x="361.0" y="101.0" width="80" height="222.0" rx="30.0" fill="#092D25" opacity=".018"/><rect x="361.5" y="101.3" width="79" height="221.2" rx="29.5" fill="#092D25" opacity=".018"/><rect x="362.0" y="101.6" width="78" height="220.4" rx="29.0" fill="#092D25" opacity=".018"/><rect x="362.5" y="101.9" width="77" height="219.6" rx="28.5" fill="#092D25" opacity=".018"/><rect x="363.0" y="102.2" width="76" height="218.8" rx="28.0" fill="#092D25" opacity=".018"/><rect x="363.5" y="102.5" width="75" height="218.0" rx="27.5" fill="#092D25" opacity=".018"/><rect x="364.0" y="102.8" width="74" height="217.2" rx="27.0" fill="#092D25" opacity=".018"/><rect x="364.5" y="103.1" width="73" height="216.4" rx="26.5" fill="#092D25" opacity=".018"/><rect x="365.0" y="103.4" width="72" height="215.6" rx="26.0" fill="#092D25" opacity=".018"/><rect x="365.5" y="103.7" width="71" height="214.8" rx="25.5" fill="#092D25" opacity=".018"/><defs><linearGradient id="round1_0" x1=".1" y1="0" x2=".7" y2="1"><stop stop-color="#79c0aa"/><stop offset="1" stop-color="#24624f"/></linearGradient></defs><rect x="363.0" y="97.0" width="76.0" height="223.0" rx="28.0" fill="url(#round1_0)"/><defs><linearGradient id="round1_1" x1=".1" y1="0" x2=".7" y2="1"><stop stop-color="#7fc3ae"/><stop offset="1" stop-color="#296855"/></linearGradient></defs><rect x="363.01353473382983" y="97.01353473382986" width="75.97293053234029" height="222.97293053234029" rx="27.986465266170146" fill="url(#round1_1)"/><defs><linearGradient id="round1_2" x1=".1" y1="0" x2=".7" y2="1"><stop stop-color="#85c7b2"/><stop offset="1" stop-color="#2e6f5b"/></linearGradient></defs><rect x="363.05409313806445" y="97.05409313806446" width="75.89181372387108" height="222.89181372387108" rx="27.945906861935544" fill="url(#round1_2)"/><defs><linearGradient id="round1_3" x1=".1" y1="0" x2=".7" y2="1"><stop stop-color="#8bcab6"/><stop offset="1" stop-color="#337561"/></linearGradient></defs><rect x="363.12153797590236" y="97.12153797590234" width="75.75692404819533" height="222.75692404819532" rx="27.878462024097665" fill="url(#round1_3)"/><defs><linearGradient id="round1_4" x1=".1" y1="0" x2=".7" y2="1"><stop stop-color="#91ceba"/><stop offset="1" stop-color="#387b67"/></linearGradient></defs><rect x="363.2156410353614" y="97.21564103536141" width="75.56871792927718" height="222.56871792927717" rx="27.784358964638592" fill="url(#round1_4)"/><defs><linearGradient id="round1_5" x1=".1" y1="0" x2=".7" y2="1"><stop stop-color="#97d1be"/><stop offset="1" stop-color="#3d826c"/></linearGradient></defs><rect x="363.3360839014761" y="97.33608390147609" width="75.32783219704783" height="222.32783219704783" rx="27.663916098523913" fill="url(#round1_5)"/><defs><linearGradient id="round1_6" x1=".1" y1="0" x2=".7" y2="1"><stop stop-color="#9cd5c2"/><stop offset="1" stop-color="#428872"/></linearGradient></defs><rect x="363.48245903371276" y="97.48245903371273" width="75.03508193257454" height="222.03508193257454" rx="27.517540966287267" fill="url(#round1_6)"/><defs><linearGradient id="round1_7" x1=".1" y1="0" x2=".7" y2="1"><stop stop-color="#a2d8c5"/><stop offset="1" stop-color="#478e77"/></linearGradient></defs><rect x="363.6542711449578" y="97.6542711449578" width="74.69145771008438" height="221.6914577100844" rx="27.345728855042193" fill="url(#round1_7)"/><defs><linearGradient id="round1_8" x1=".1" y1="0" x2=".7" y2="1"><stop stop-color="#a7dbc9"/><stop offset="1" stop-color="#4b937d"/></linearGradient></defs><rect x="363.8509388774127" y="97.8509388774127" width="74.2981222451746" height="221.2981222451746" rx="27.149061122587298" fill="url(#round1_8)"/><defs><linearGradient id="round1_9" x1=".1" y1="0" x2=".7" y2="1"><stop stop-color="#acdecc"/><stop offset="1" stop-color="#509982"/></linearGradient></defs><rect x="364.0717967697245" y="98.07179676972449" width="73.85640646055101" height="220.85640646055103" rx="26.92820323027551" fill="url(#round1_9)"/><defs><linearGradient id="round1_10" x1=".1" y1="0" x2=".7" y2="1"><stop stop-color="#b2e1d0"/><stop offset="1" stop-color="#549e87"/></linearGradient></defs><rect x="364.3160975086965" y="98.31609750869652" width="73.36780498260698" height="220.36780498260697" rx="26.683902491303492" fill="url(#round1_10)"/><defs><linearGradient id="round1_11" x1=".1" y1="0" x2=".7" y2="1"><stop stop-color="#b7e4d3"/><stop offset="1" stop-color="#59a48c"/></linearGradient></defs><rect x="364.5830144579596" y="98.58301445795965" width="72.8339710840807" height="219.8339710840807" rx="26.41698554204035" fill="url(#round1_11)"/><defs><linearGradient id="round1_12" x1=".1" y1="0" x2=".7" y2="1"><stop stop-color="#bbe7d6"/><stop offset="1" stop-color="#5da991"/></linearGradient></defs><rect x="364.87164445504817" y="98.87164445504817" width="72.25671108990365" height="219.25671108990366" rx="26.128355544951823" fill="url(#round1_12)"/><defs><linearGradient id="round1_13" x1=".1" y1="0" x2=".7" y2="1"><stop stop-color="#c0e9d9"/><stop offset="1" stop-color="#60ad95"/></linearGradient></defs><rect x="365.18101086741564" y="99.18101086741561" width="71.63797826516878" height="218.63797826516878" rx="25.81898913258439" fill="url(#round1_13)"/><defs><linearGradient id="round1_14" x1=".1" y1="0" x2=".7" y2="1"><stop stop-color="#c4ecdc"/><stop offset="1" stop-color="#64b299"/></linearGradient></defs><rect x="365.51006689705014" y="99.51006689705014" width="70.97986620589974" height="217.97986620589973" rx="25.48993310294987" fill="url(#round1_14)"/><defs><linearGradient id="round1_15" x1=".1" y1="0" x2=".7" y2="1"><stop stop-color="#c8eedf"/><stop offset="1" stop-color="#67b69d"/></linearGradient></defs><rect x="365.8576991225077" y="99.85769912250768" width="70.28460175498464" height="217.28460175498464" rx="25.142300877492314" fill="url(#round1_15)"/><defs><linearGradient id="round1_16" x1=".1" y1="0" x2=".7" y2="1"><stop stop-color="#ccf0e1"/><stop offset="1" stop-color="#6bbaa1"/></linearGradient></defs><rect x="366.2227312663777" y="100.2227312663777" width="69.55453746724459" height="216.5545374672446" rx="24.77726873362229" fill="url(#round1_16)"/><defs><linearGradient id="round1_17" x1=".1" y1="0" x2=".7" y2="1"><stop stop-color="#cff2e4"/><stop offset="1" stop-color="#6ebea4"/></linearGradient></defs><rect x="366.60392817543357" y="100.60392817543355" width="68.7921436491329" height="215.7921436491329" rx="24.396071824566448" fill="url(#round1_17)"/><defs><linearGradient id="round1_18" x1=".1" y1="0" x2=".7" y2="1"><stop stop-color="#d2f4e6"/><stop offset="1" stop-color="#70c1a7"/></linearGradient></defs><rect x="367.0" y="101.0" width="68.0" height="215.0" rx="24.0" fill="url(#round1_18)"/><defs><linearGradient id="round1_19" x1=".1" y1="0" x2=".7" y2="1"><stop stop-color="#d5f6e8"/><stop offset="1" stop-color="#73c4aa"/></linearGradient></defs><rect x="367.4096065583963" y="101.4096065583963" width="67.18078688320739" height="214.1807868832074" rx="23.590393441603698" fill="url(#round1_19)"/><defs><linearGradient id="round1_20" x1=".1" y1="0" x2=".7" y2="1"><stop stop-color="#d8f7e9"/><stop offset="1" stop-color="#75c7ad"/></linearGradient></defs><rect x="367.83136187168674" y="101.83136187168674" width="66.33727625662651" height="213.33727625662652" rx="23.168638128313255" fill="url(#round1_20)"/><defs><linearGradient id="round1_21" x1=".1" y1="0" x2=".7" y2="1"><stop stop-color="#daf8eb"/><stop offset="1" stop-color="#77c9af"/></linearGradient></defs><rect x="368.26383885339465" y="102.26383885339465" width="65.47232229321071" height="212.4723222932107" rx="22.73616114660535" fill="url(#round1_21)"/><defs><linearGradient id="round1_22" x1=".1" y1="0" x2=".7" y2="1"><stop stop-color="#dcf9ec"/><stop offset="1" stop-color="#78cbb1"/></linearGradient></defs><rect x="368.70557413831125" y="102.70557413831128" width="64.58885172337745" height="211.58885172337745" rx="22.294425861688723" fill="url(#round1_22)"/><defs><linearGradient id="round1_23" x1=".1" y1="0" x2=".7" y2="1"><stop stop-color="#ddfaed"/><stop offset="1" stop-color="#7acdb2"/></linearGradient></defs><rect x="369.1550730340605" y="103.15507303406048" width="63.68985393187904" height="210.68985393187904" rx="21.84492696593952" fill="url(#round1_23)"/><defs><linearGradient id="round1_24" x1=".1" y1="0" x2=".7" y2="1"><stop stop-color="#defbee"/><stop offset="1" stop-color="#7bceb3"/></linearGradient></defs><rect x="369.61081457866453" y="103.61081457866456" width="62.77837084267089" height="209.77837084267088" rx="21.389185421335444" fill="url(#round1_24)"/><defs><linearGradient id="round1_25" x1=".1" y1="0" x2=".7" y2="1"><stop stop-color="#dffcef"/><stop offset="1" stop-color="#7bcfb4"/></linearGradient></defs><rect x="370.07125668699814" y="104.07125668699815" width="61.857486626003684" height="208.8574866260037" rx="20.928743313001842" fill="url(#round1_25)"/><defs><linearGradient id="round1_26" x1=".1" y1="0" x2=".7" y2="1"><stop stop-color="#e0fcef"/><stop offset="1" stop-color="#7cd0b5"/></linearGradient></defs><rect x="370.5348413687162" y="104.53484136871619" width="60.93031726256761" height="207.93031726256763" rx="20.465158631283806" fill="url(#round1_26)"/><defs><linearGradient id="round1_27" x1=".1" y1="0" x2=".7" y2="1"><stop stop-color="#e0fcef"/><stop offset="1" stop-color="#7cd0b5"/></linearGradient></defs><rect x="371.0" y="105.0" width="60.0" height="207.0" rx="20.0" fill="url(#round1_27)"/><rect x="371" y="105" width="60" height="204" rx="20" fill="url(#glass)"/><clipPath id="pane1"><rect x="371" y="105" width="60" height="204" rx="20"/></clipPath><path clip-path="url(#pane1)" d="M371 105 H431 V141.72 Q404.0 227.39999999999998 371 207.0 Z" fill="url(#reflection)"/><rect x="95.0" y="339.0" width="346" height="106.0" rx="35.0" fill="#092D25" opacity=".018"/><rect x="95.5" y="339.3" width="345" height="105.2" rx="34.5" fill="#092D25" opacity=".018"/><rect x="96.0" y="339.6" width="344" height="104.4" rx="34.0" fill="#092D25" opacity=".018"/><rect x="96.5" y="339.9" width="343" height="103.6" rx="33.5" fill="#092D25" opacity=".018"/><rect x="97.0" y="340.2" width="342" height="102.8" rx="33.0" fill="#092D25" opacity=".018"/><rect x="97.5" y="340.5" width="341" height="102.0" rx="32.5" fill="#092D25" opacity=".018"/><rect x="98.0" y="340.8" width="340" height="101.2" rx="32.0" fill="#092D25" opacity=".018"/><rect x="98.5" y="341.1" width="339" height="100.4" rx="31.5" fill="#092D25" opacity=".018"/><rect x="99.0" y="341.4" width="338" height="99.6" rx="31.0" fill="#092D25" opacity=".018"/><rect x="99.5" y="341.7" width="337" height="98.8" rx="30.5" fill="#092D25" opacity=".018"/><defs><linearGradient id="round2_0" x1=".1" y1="0" x2=".7" y2="1"><stop stop-color="#79c0aa"/><stop offset="1" stop-color="#24624f"/></linearGradient></defs><rect x="97.0" y="335.0" width="342.0" height="107.0" rx="33.0" fill="url(#round2_0)"/><defs><linearGradient id="round2_1" x1=".1" y1="0" x2=".7" y2="1"><stop stop-color="#7fc3ae"/><stop offset="1" stop-color="#296855"/></linearGradient></defs><rect x="97.01353473382986" y="335.01353473382983" width="341.9729305323403" height="106.97293053234029" rx="32.98646526617014" fill="url(#round2_1)"/><defs><linearGradient id="round2_2" x1=".1" y1="0" x2=".7" y2="1"><stop stop-color="#85c7b2"/><stop offset="1" stop-color="#2e6f5b"/></linearGradient></defs><rect x="97.05409313806446" y="335.05409313806445" width="341.8918137238711" height="106.89181372387108" rx="32.94590686193554" fill="url(#round2_2)"/><defs><linearGradient id="round2_3" x1=".1" y1="0" x2=".7" y2="1"><stop stop-color="#8bcab6"/><stop offset="1" stop-color="#337561"/></linearGradient></defs><rect x="97.12153797590234" y="335.12153797590236" width="341.75692404819534" height="106.75692404819533" rx="32.878462024097665" fill="url(#round2_3)"/><defs><linearGradient id="round2_4" x1=".1" y1="0" x2=".7" y2="1"><stop stop-color="#91ceba"/><stop offset="1" stop-color="#387b67"/></linearGradient></defs><rect x="97.21564103536141" y="335.2156410353614" width="341.56871792927717" height="106.56871792927718" rx="32.78435896463859" fill="url(#round2_4)"/><defs><linearGradient id="round2_5" x1=".1" y1="0" x2=".7" y2="1"><stop stop-color="#97d1be"/><stop offset="1" stop-color="#3d826c"/></linearGradient></defs><rect x="97.33608390147609" y="335.3360839014761" width="341.3278321970478" height="106.32783219704783" rx="32.66391609852391" fill="url(#round2_5)"/><defs><linearGradient id="round2_6" x1=".1" y1="0" x2=".7" y2="1"><stop stop-color="#9cd5c2"/><stop offset="1" stop-color="#428872"/></linearGradient></defs><rect x="97.48245903371273" y="335.48245903371276" width="341.03508193257454" height="106.03508193257454" rx="32.51754096628727" fill="url(#round2_6)"/><defs><linearGradient id="round2_7" x1=".1" y1="0" x2=".7" y2="1"><stop stop-color="#a2d8c5"/><stop offset="1" stop-color="#478e77"/></linearGradient></defs><rect x="97.6542711449578" y="335.6542711449578" width="340.69145771008436" height="105.69145771008438" rx="32.34572885504219" fill="url(#round2_7)"/><defs><linearGradient id="round2_8" x1=".1" y1="0" x2=".7" y2="1"><stop stop-color="#a7dbc9"/><stop offset="1" stop-color="#4b937d"/></linearGradient></defs><rect x="97.8509388774127" y="335.8509388774127" width="340.29812224517457" height="105.2981222451746" rx="32.1490611225873" fill="url(#round2_8)"/><defs><linearGradient id="round2_9" x1=".1" y1="0" x2=".7" y2="1"><stop stop-color="#acdecc"/><stop offset="1" stop-color="#509982"/></linearGradient></defs><rect x="98.07179676972449" y="336.0717967697245" width="339.856406460551" height="104.85640646055101" rx="31.92820323027551" fill="url(#round2_9)"/><defs><linearGradient id="round2_10" x1=".1" y1="0" x2=".7" y2="1"><stop stop-color="#b2e1d0"/><stop offset="1" stop-color="#549e87"/></linearGradient></defs><rect x="98.31609750869652" y="336.3160975086965" width="339.36780498260697" height="104.36780498260698" rx="31.683902491303492" fill="url(#round2_10)"/><defs><linearGradient id="round2_11" x1=".1" y1="0" x2=".7" y2="1"><stop stop-color="#b7e4d3"/><stop offset="1" stop-color="#59a48c"/></linearGradient></defs><rect x="98.58301445795965" y="336.5830144579596" width="338.8339710840807" height="103.8339710840807" rx="31.41698554204035" fill="url(#round2_11)"/><defs><linearGradient id="round2_12" x1=".1" y1="0" x2=".7" y2="1"><stop stop-color="#bbe7d6"/><stop offset="1" stop-color="#5da991"/></linearGradient></defs><rect x="98.87164445504817" y="336.87164445504817" width="338.25671108990366" height="103.25671108990365" rx="31.128355544951823" fill="url(#round2_12)"/><defs><linearGradient id="round2_13" x1=".1" y1="0" x2=".7" y2="1"><stop stop-color="#c0e9d9"/><stop offset="1" stop-color="#60ad95"/></linearGradient></defs><rect x="99.18101086741561" y="337.18101086741564" width="337.6379782651688" height="102.63797826516878" rx="30.81898913258439" fill="url(#round2_13)"/><defs><linearGradient id="round2_14" x1=".1" y1="0" x2=".7" y2="1"><stop stop-color="#c4ecdc"/><stop offset="1" stop-color="#64b299"/></linearGradient></defs><rect x="99.51006689705014" y="337.51006689705014" width="336.9798662058997" height="101.97986620589974" rx="30.48993310294987" fill="url(#round2_14)"/><defs><linearGradient id="round2_15" x1=".1" y1="0" x2=".7" y2="1"><stop stop-color="#c8eedf"/><stop offset="1" stop-color="#67b69d"/></linearGradient></defs><rect x="99.85769912250768" y="337.8576991225077" width="336.28460175498464" height="101.28460175498464" rx="30.142300877492314" fill="url(#round2_15)"/><defs><linearGradient id="round2_16" x1=".1" y1="0" x2=".7" y2="1"><stop stop-color="#ccf0e1"/><stop offset="1" stop-color="#6bbaa1"/></linearGradient></defs><rect x="100.2227312663777" y="338.2227312663777" width="335.5545374672446" height="100.55453746724459" rx="29.77726873362229" fill="url(#round2_16)"/><defs><linearGradient id="round2_17" x1=".1" y1="0" x2=".7" y2="1"><stop stop-color="#cff2e4"/><stop offset="1" stop-color="#6ebea4"/></linearGradient></defs><rect x="100.60392817543355" y="338.60392817543357" width="334.79214364913287" height="99.7921436491329" rx="29.396071824566448" fill="url(#round2_17)"/><defs><linearGradient id="round2_18" x1=".1" y1="0" x2=".7" y2="1"><stop stop-color="#d2f4e6"/><stop offset="1" stop-color="#70c1a7"/></linearGradient></defs><rect x="101.0" y="339.0" width="334.0" height="99.0" rx="29.0" fill="url(#round2_18)"/><defs><linearGradient id="round2_19" x1=".1" y1="0" x2=".7" y2="1"><stop stop-color="#d5f6e8"/><stop offset="1" stop-color="#73c4aa"/></linearGradient></defs><rect x="101.4096065583963" y="339.4096065583963" width="333.1807868832074" height="98.18078688320739" rx="28.590393441603698" fill="url(#round2_19)"/><defs><linearGradient id="round2_20" x1=".1" y1="0" x2=".7" y2="1"><stop stop-color="#d8f7e9"/><stop offset="1" stop-color="#75c7ad"/></linearGradient></defs><rect x="101.83136187168674" y="339.83136187168674" width="332.3372762566265" height="97.33727625662651" rx="28.168638128313255" fill="url(#round2_20)"/><defs><linearGradient id="round2_21" x1=".1" y1="0" x2=".7" y2="1"><stop stop-color="#daf8eb"/><stop offset="1" stop-color="#77c9af"/></linearGradient></defs><rect x="102.26383885339465" y="340.26383885339465" width="331.4723222932107" height="96.47232229321071" rx="27.73616114660535" fill="url(#round2_21)"/><defs><linearGradient id="round2_22" x1=".1" y1="0" x2=".7" y2="1"><stop stop-color="#dcf9ec"/><stop offset="1" stop-color="#78cbb1"/></linearGradient></defs><rect x="102.70557413831128" y="340.70557413831125" width="330.58885172337745" height="95.58885172337745" rx="27.294425861688723" fill="url(#round2_22)"/><defs><linearGradient id="round2_23" x1=".1" y1="0" x2=".7" y2="1"><stop stop-color="#ddfaed"/><stop offset="1" stop-color="#7acdb2"/></linearGradient></defs><rect x="103.15507303406048" y="341.1550730340605" width="329.68985393187904" height="94.68985393187904" rx="26.84492696593952" fill="url(#round2_23)"/><defs><linearGradient id="round2_24" x1=".1" y1="0" x2=".7" y2="1"><stop stop-color="#defbee"/><stop offset="1" stop-color="#7bceb3"/></linearGradient></defs><rect x="103.61081457866456" y="341.61081457866453" width="328.7783708426709" height="93.77837084267088" rx="26.389185421335444" fill="url(#round2_24)"/><defs><linearGradient id="round2_25" x1=".1" y1="0" x2=".7" y2="1"><stop stop-color="#dffcef"/><stop offset="1" stop-color="#7bcfb4"/></linearGradient></defs><rect x="104.07125668699815" y="342.07125668699814" width="327.85748662600366" height="92.85748662600369" rx="25.928743313001842" fill="url(#round2_25)"/><defs><linearGradient id="round2_26" x1=".1" y1="0" x2=".7" y2="1"><stop stop-color="#e0fcef"/><stop offset="1" stop-color="#7cd0b5"/></linearGradient></defs><rect x="104.53484136871619" y="342.5348413687162" width="326.9303172625676" height="91.93031726256761" rx="25.465158631283806" fill="url(#round2_26)"/><defs><linearGradient id="round2_27" x1=".1" y1="0" x2=".7" y2="1"><stop stop-color="#e0fcef"/><stop offset="1" stop-color="#7cd0b5"/></linearGradient></defs><rect x="105.0" y="343.0" width="326.0" height="91.0" rx="25.0" fill="url(#round2_27)"/><rect x="105" y="343" width="326" height="88" rx="25" fill="url(#glass)"/><clipPath id="pane2"><rect x="105" y="343" width="326" height="88" rx="25"/></clipPath><path clip-path="url(#pane2)" d="M105 343 H431 V358.84 Q284.3 395.8 105 387.0 Z" fill="url(#reflection)"/><rect x="8" y="8" width="496" height="496" rx="112" fill="url(#light)"/></g></svg>